<svg xmlns="http://www.w3.org/2000/svg" xmlns:xlink="http://www.w3.org/1999/xlink" width="2000" zoomAndPan="magnify" viewBox="0 0 1500 1499.999933" height="2000" preserveAspectRatio="xMidYMid meet" version="1.0"><defs><g/><clipPath id="87a8fc237f"><rect x="0" width="1056" y="0" height="1500"/></clipPath><clipPath id="778dc7b3ef"><path d="M 217 52 L 1022 52 L 1022 523 L 217 523 Z M 217 52 " clip-rule="nonzero"/></clipPath><clipPath id="cbf9381faf"><path d="M 196.109375 91.730469 L 503.832031 -186.34375 L 1077.078125 448.019531 L 769.355469 726.09375 Z M 196.109375 91.730469 " clip-rule="nonzero"/></clipPath><clipPath id="e46435394c"><path d="M 196.109375 91.730469 L 503.832031 -186.34375 L 1077.078125 448.019531 L 769.355469 726.09375 Z M 196.109375 91.730469 " clip-rule="nonzero"/></clipPath><clipPath id="e0606b42ab"><path d="M 322 98 L 1022 98 L 1022 523 L 322 523 Z M 322 98 " clip-rule="nonzero"/></clipPath><clipPath id="a245a3a6e4"><path d="M 196.109375 91.730469 L 503.832031 -186.34375 L 1077.078125 448.019531 L 769.355469 726.09375 Z M 196.109375 91.730469 " clip-rule="nonzero"/></clipPath><clipPath id="95f8bb71bc"><path d="M 196.109375 91.730469 L 503.832031 -186.34375 L 1077.078125 448.019531 L 769.355469 726.09375 Z M 196.109375 91.730469 " clip-rule="nonzero"/></clipPath><clipPath id="34caa5a44a"><path d="M 212.1875 76.4375 L 495.96875 -180.003906 L 1066.722656 451.605469 L 782.941406 708.042969 Z M 212.1875 76.4375 " clip-rule="nonzero"/></clipPath><clipPath id="a4fbe5dad0"><path d="M 1004.648438 499.730469 C 1022.191406 497.332031 1026.039062 490.855469 1017.496094 469.351562 C 955.492188 313.28125 846.246094 203.171875 764.28125 149.382812 C 646.648438 72.1875 517.761719 54.425781 415.847656 52.648438 C 365.765625 51.769531 296.605469 62.042969 268.285156 64.929688 C 251.449219 66.640625 218.746094 71.324219 217.496094 75.925781 C 216.28125 80.367188 229.964844 88.183594 255.289062 105.933594 C 276.5 120.792969 333.105469 181.476562 353.265625 213.648438 C 459.246094 382.792969 598.976562 466.507812 708.109375 503 C 830.503906 543.917969 944.789062 507.90625 1004.648438 499.730469 Z M 1004.648438 499.730469 " clip-rule="evenodd"/></clipPath><clipPath id="7d12057cd1"><path d="M 715 984 L 855 984 L 855 1126 L 715 1126 Z M 715 984 " clip-rule="nonzero"/></clipPath><clipPath id="6270e46562"><path d="M 860.363281 1119.019531 L 715.417969 1125.53125 L 709.355469 990.601562 L 854.300781 984.085938 Z M 860.363281 1119.019531 " clip-rule="nonzero"/></clipPath><clipPath id="2fb55f99e5"><path d="M 794.148438 1121.992188 L 717.917969 1125.417969 C 717.101562 1125.457031 716.328125 1125.074219 715.859375 1124.40625 C 715.394531 1123.738281 715.300781 1122.878906 715.613281 1122.125 L 770.1875 991.261719 C 771.070312 989.148438 773.089844 987.734375 775.378906 987.632812 L 851.609375 984.207031 C 852.421875 984.171875 853.199219 984.554688 853.664062 985.21875 C 854.132812 985.886719 854.226562 986.75 853.910156 987.5 L 799.335938 1118.363281 C 798.457031 1120.476562 796.433594 1121.890625 794.148438 1121.992188 Z M 794.148438 1121.992188 " clip-rule="nonzero"/></clipPath><clipPath id="7aa8e36526"><path d="M 0.199219 0 L 139.398438 0 L 139.398438 141.601562 L 0.199219 141.601562 Z M 0.199219 0 " clip-rule="nonzero"/></clipPath><clipPath id="011e3abc03"><path d="M 145.363281 135.019531 L 0.417969 141.53125 L -5.644531 6.601562 L 139.300781 0.0859375 Z M 145.363281 135.019531 " clip-rule="nonzero"/></clipPath><clipPath id="444f376843"><path d="M 79.148438 137.992188 L 2.917969 141.417969 C 2.101562 141.457031 1.328125 141.074219 0.859375 140.40625 C 0.394531 139.738281 0.300781 138.878906 0.613281 138.125 L 55.1875 7.261719 C 56.070312 5.148438 58.089844 3.734375 60.378906 3.632812 L 136.609375 0.207031 C 137.421875 0.171875 138.199219 0.554688 138.664062 1.21875 C 139.132812 1.886719 139.226562 2.75 138.910156 3.5 L 84.335938 134.363281 C 83.457031 136.476562 81.433594 137.890625 79.148438 137.992188 Z M 79.148438 137.992188 " clip-rule="nonzero"/></clipPath><clipPath id="5d9c47c571"><rect x="0" width="140" y="0" height="142"/></clipPath><clipPath id="28f0b7ffae"><path d="M 638.527344 903.773438 L 783.621094 903.773438 L 783.621094 1064.414062 L 638.527344 1064.414062 Z M 638.527344 903.773438 " clip-rule="nonzero"/></clipPath><clipPath id="edb8b14741"><path d="M 704.714844 903.773438 L 781.023438 903.773438 C 781.867188 903.773438 782.65625 904.191406 783.132812 904.890625 C 783.605469 905.589844 783.703125 906.476562 783.394531 907.261719 L 722.566406 1060.835938 C 721.730469 1062.941406 719.699219 1064.320312 717.433594 1064.320312 L 641.125 1064.320312 C 640.28125 1064.320312 639.492188 1063.902344 639.019531 1063.207031 C 638.542969 1062.507812 638.445312 1061.621094 638.757812 1060.835938 L 699.585938 907.261719 C 700.417969 905.15625 702.453125 903.773438 704.714844 903.773438 Z M 704.714844 903.773438 " clip-rule="nonzero"/></clipPath><clipPath id="be287c99e4"><path d="M 0.527344 0.773438 L 145.621094 0.773438 L 145.621094 161.398438 L 0.527344 161.398438 Z M 0.527344 0.773438 " clip-rule="nonzero"/></clipPath><clipPath id="4f35401522"><path d="M 66.714844 0.773438 L 143.023438 0.773438 C 143.867188 0.773438 144.65625 1.191406 145.132812 1.890625 C 145.605469 2.589844 145.703125 3.476562 145.394531 4.261719 L 84.566406 157.835938 C 83.730469 159.941406 81.699219 161.320312 79.433594 161.320312 L 3.125 161.320312 C 2.28125 161.320312 1.492188 160.902344 1.019531 160.207031 C 0.542969 159.507812 0.445312 158.621094 0.757812 157.835938 L 61.585938 4.261719 C 62.417969 2.15625 64.453125 0.773438 66.714844 0.773438 Z M 66.714844 0.773438 " clip-rule="nonzero"/></clipPath><clipPath id="06e010aace"><rect x="0" width="146" y="0" height="162"/></clipPath><clipPath id="5e50526e26"><path d="M 777.480469 869.539062 L 891.789062 869.539062 L 891.789062 971.5 L 777.480469 971.5 Z M 777.480469 869.539062 " clip-rule="nonzero"/></clipPath><clipPath id="17faf5693b"><path d="M 813.777344 869.539062 L 888.9375 869.539062 C 889.808594 869.539062 890.628906 869.957031 891.140625 870.664062 C 891.652344 871.367188 891.792969 872.277344 891.523438 873.105469 L 860.511719 967.9375 C 859.816406 970.0625 857.832031 971.5 855.59375 971.5 L 780.433594 971.5 C 779.5625 971.5 778.742188 971.085938 778.230469 970.378906 C 777.722656 969.671875 777.578125 968.765625 777.847656 967.9375 L 808.859375 873.105469 C 809.554688 870.976562 811.539062 869.539062 813.777344 869.539062 Z M 813.777344 869.539062 " clip-rule="nonzero"/></clipPath><clipPath id="e10e3ba32f"><path d="M 0.480469 0.539062 L 114.789062 0.539062 L 114.789062 102.5 L 0.480469 102.5 Z M 0.480469 0.539062 " clip-rule="nonzero"/></clipPath><clipPath id="a2e9645a22"><path d="M 36.777344 0.539062 L 111.9375 0.539062 C 112.808594 0.539062 113.628906 0.957031 114.140625 1.664062 C 114.652344 2.367188 114.792969 3.277344 114.523438 4.105469 L 83.511719 98.9375 C 82.816406 101.0625 80.832031 102.5 78.59375 102.5 L 3.433594 102.5 C 2.5625 102.5 1.742188 102.085938 1.230469 101.378906 C 0.722656 100.671875 0.578125 99.765625 0.847656 98.9375 L 31.859375 4.105469 C 32.554688 1.976562 34.539062 0.539062 36.777344 0.539062 Z M 36.777344 0.539062 " clip-rule="nonzero"/></clipPath><clipPath id="691d318f2d"><rect x="0" width="115" y="0" height="103"/></clipPath></defs><g transform="matrix(1, 0, 0, 1, 237, 0.000000000000112861)"><g clip-path="url(#87a8fc237f)"><g fill="#000000" fill-opacity="0.302"><g transform="translate(42.564653, 1428.701263)"><g><path d="M 152.59375 -102 C 75.488281 -186.0625 36.9375 -289.128906 36.9375 -411.203125 C 36.9375 -533.273438 75.488281 -636.609375 152.59375 -721.203125 C 229.695312 -805.804688 327.679688 -848.109375 446.546875 -848.109375 C 555.765625 -848.109375 645.710938 -813.84375 716.390625 -745.3125 L 716.390625 -824.015625 L 1000.703125 -824.015625 L 1000.703125 0 L 719.609375 0 L 719.609375 -93.15625 L 716.390625 -93.15625 C 645.710938 -14.988281 555.765625 24.09375 446.546875 24.09375 C 327.679688 24.09375 229.695312 -17.9375 152.59375 -102 Z M 394.328125 -550.953125 C 357.390625 -514.546875 338.921875 -467.960938 338.921875 -411.203125 C 338.921875 -354.453125 356.585938 -308.140625 391.921875 -272.265625 C 427.265625 -236.390625 473.847656 -218.453125 531.671875 -218.453125 C 587.359375 -218.453125 633.132812 -236.65625 669 -273.0625 C 704.875 -309.46875 722.8125 -355.515625 722.8125 -411.203125 C 722.8125 -467.960938 704.335938 -514.546875 667.390625 -550.953125 C 630.453125 -587.359375 585.210938 -605.5625 531.671875 -605.5625 C 477.054688 -605.5625 431.273438 -587.359375 394.328125 -550.953125 Z M 394.328125 -550.953125 "/></g></g></g><g fill="#000000" fill-opacity="0.502"><g transform="translate(21.995538, 1412.630902)"><g><path d="M 152.59375 -102 C 75.488281 -186.0625 36.9375 -289.128906 36.9375 -411.203125 C 36.9375 -533.273438 75.488281 -636.609375 152.59375 -721.203125 C 229.695312 -805.804688 327.679688 -848.109375 446.546875 -848.109375 C 555.765625 -848.109375 645.710938 -813.84375 716.390625 -745.3125 L 716.390625 -824.015625 L 1000.703125 -824.015625 L 1000.703125 0 L 719.609375 0 L 719.609375 -93.15625 L 716.390625 -93.15625 C 645.710938 -14.988281 555.765625 24.09375 446.546875 24.09375 C 327.679688 24.09375 229.695312 -17.9375 152.59375 -102 Z M 394.328125 -550.953125 C 357.390625 -514.546875 338.921875 -467.960938 338.921875 -411.203125 C 338.921875 -354.453125 356.585938 -308.140625 391.921875 -272.265625 C 427.265625 -236.390625 473.847656 -218.453125 531.671875 -218.453125 C 587.359375 -218.453125 633.132812 -236.65625 669 -273.0625 C 704.875 -309.46875 722.8125 -355.515625 722.8125 -411.203125 C 722.8125 -467.960938 704.335938 -514.546875 667.390625 -550.953125 C 630.453125 -587.359375 585.210938 -605.5625 531.671875 -605.5625 C 477.054688 -605.5625 431.273438 -587.359375 394.328125 -550.953125 Z M 394.328125 -550.953125 "/></g></g></g><g fill="#ffffff" fill-opacity="1"><g transform="translate(1.426409, 1396.560542)"><g><path d="M 152.59375 -102 C 75.488281 -186.0625 36.9375 -289.128906 36.9375 -411.203125 C 36.9375 -533.273438 75.488281 -636.609375 152.59375 -721.203125 C 229.695312 -805.804688 327.679688 -848.109375 446.546875 -848.109375 C 555.765625 -848.109375 645.710938 -813.84375 716.390625 -745.3125 L 716.390625 -824.015625 L 1000.703125 -824.015625 L 1000.703125 0 L 719.609375 0 L 719.609375 -93.15625 L 716.390625 -93.15625 C 645.710938 -14.988281 555.765625 24.09375 446.546875 24.09375 C 327.679688 24.09375 229.695312 -17.9375 152.59375 -102 Z M 394.328125 -550.953125 C 357.390625 -514.546875 338.921875 -467.960938 338.921875 -411.203125 C 338.921875 -354.453125 356.585938 -308.140625 391.921875 -272.265625 C 427.265625 -236.390625 473.847656 -218.453125 531.671875 -218.453125 C 587.359375 -218.453125 633.132812 -236.65625 669 -273.0625 C 704.875 -309.46875 722.8125 -355.515625 722.8125 -411.203125 C 722.8125 -467.960938 704.335938 -514.546875 667.390625 -550.953125 C 630.453125 -587.359375 585.210938 -605.5625 531.671875 -605.5625 C 477.054688 -605.5625 431.273438 -587.359375 394.328125 -550.953125 Z M 394.328125 -550.953125 "/></g></g></g></g></g><g clip-path="url(#778dc7b3ef)"><g clip-path="url(#cbf9381faf)"><g clip-path="url(#e46435394c)"><path fill="#8ef012" d="M 1004.648438 499.730469 C 1022.191406 497.332031 1026.039062 490.855469 1017.496094 469.351562 C 955.492188 313.28125 846.246094 203.171875 764.28125 149.382812 C 646.648438 72.183594 517.761719 54.425781 415.847656 52.648438 C 365.769531 51.769531 296.609375 62.042969 268.285156 64.929688 C 251.449219 66.640625 218.746094 71.324219 217.496094 75.925781 C 216.28125 80.367188 229.964844 88.183594 255.289062 105.933594 C 276.5 120.792969 333.109375 181.476562 353.265625 213.648438 C 459.246094 382.792969 598.976562 466.507812 708.109375 503 C 830.503906 543.917969 944.789062 507.910156 1004.648438 499.730469 Z M 1004.648438 499.730469 " fill-opacity="1" fill-rule="evenodd"/></g></g></g><g clip-path="url(#e0606b42ab)"><g clip-path="url(#a245a3a6e4)"><g clip-path="url(#95f8bb71bc)"><g clip-path="url(#34caa5a44a)"><g clip-path="url(#a4fbe5dad0)"><path fill="#8ef012" d="M 500.242188 209.703125 C 496.015625 211.28125 491.277344 212.992188 486.523438 214.609375 C 479.660156 216.945312 472.816406 219.15625 467.492188 220.261719 C 461.753906 221.550781 455.132812 222.371094 448.417969 223.308594 C 443.964844 223.933594 439.574219 224.582031 435.277344 225.289062 C 431.3125 225.941406 427.691406 226.65625 424.199219 227.367188 C 419.785156 228.265625 416.183594 229.175781 413.019531 229.867188 C 412.613281 229.867188 412.277344 230.1875 412.273438 230.59375 C 412.265625 231 412.59375 231.332031 412.996094 231.335938 C 416.148438 232.117188 419.738281 233.160156 424.167969 234.058594 C 429.355469 235.113281 435.019531 236.109375 441.121094 236.644531 C 451.046875 237.527344 461.40625 237.046875 470.078125 236.257812 C 476.058594 235.554688 483.847656 233.878906 491.628906 231.90625 C 503.816406 228.824219 515.917969 225.007812 520.460938 223.542969 C 539.941406 237.097656 558.140625 250.386719 575.554688 263.222656 C 602.257812 282.898438 627.003906 301.640625 651.007812 319.417969 C 644.453125 320.699219 637.125 322.070312 629.535156 323.382812 C 618.828125 325.234375 607.648438 327.046875 597.371094 328.183594 C 588.585938 329.308594 578.808594 329.546875 568.980469 329.898438 C 562.332031 330.140625 555.808594 330.453125 549.433594 330.769531 C 543.523438 331.066406 538.09375 331.460938 532.882812 331.859375 C 526.289062 332.363281 520.828125 333.003906 516.117188 333.414062 C 515.539062 333.339844 515.015625 333.742188 514.941406 334.316406 C 514.867188 334.890625 515.269531 335.417969 515.84375 335.492188 C 521.273438 337.386719 527.804688 339.914062 535.839844 342.3125 C 542.214844 344.21875 549.011719 345.929688 556.300781 347.421875 C 560.425781 348.269531 564.59375 348.910156 568.828125 349.453125 C 579.179688 350.761719 589.542969 351.136719 598.941406 351.023438 C 612.484375 350.625 627.621094 349.382812 641.335938 347.917969 C 661.878906 345.714844 679.101562 343.023438 682.582031 342.464844 C 685.941406 344.875 689.300781 347.265625 692.660156 349.636719 C 713.003906 364.003906 733.4375 377.46875 754.707031 390.023438 C 776.929688 403.105469 799.960938 415.371094 823.289062 426.828125 C 821.597656 427.597656 819.851562 428.375 818.046875 429.144531 C 807.625 433.605469 795.515625 438.164062 782.390625 440.992188 C 774.6875 442.824219 764.257812 444.09375 753.449219 445.765625 C 746.582031 446.828125 739.800781 448.027344 733.253906 449.351562 C 726.886719 450.640625 721.359375 452.042969 716.242188 453.363281 C 705.558594 456.117188 699.101562 458.222656 699.101562 458.222656 C 698.332031 458.210938 697.699219 458.828125 697.683594 459.597656 C 697.671875 460.367188 698.285156 461.003906 699.054688 461.019531 C 699.054688 461.019531 705.476562 463.414062 716.269531 466.035156 C 723.777344 467.863281 732.558594 469.785156 742.335938 470.929688 C 758.445312 472.816406 775.503906 472.242188 787.253906 471.398438 C 802.890625 469.722656 817.59375 466.070312 830.25 462.050781 C 847.164062 456.6875 860.253906 450.460938 866.722656 447.132812 C 894.703125 459.589844 923.308594 471.523438 950.378906 481.707031 C 1037.507812 514.484375 1051.953125 522.3125 1091.542969 532.535156 C 1103.199219 535.4375 1105.5625 499.292969 1093.898438 496.386719 C 1054.953125 487.0625 1050.410156 476.878906 964.472656 446.429688 C 925.050781 432.460938 882.589844 413.472656 842.007812 394.734375 C 842.148438 390.261719 841.78125 378.4375 836.359375 358 C 833.035156 345.484375 827.785156 329.300781 819.308594 309.019531 C 811.265625 290.757812 800.324219 271.121094 788.242188 254.582031 C 784.425781 249.355469 780.550781 244.605469 776.648438 240.171875 C 772.136719 235.039062 767.9375 230.664062 763.890625 226.738281 C 752.851562 216.039062 745.335938 210.269531 745.335938 210.269531 C 744.871094 209.65625 743.992188 209.535156 743.378906 210 C 742.765625 210.46875 742.644531 211.34375 743.109375 211.957031 C 743.109375 211.957031 746.460938 220.636719 752.347656 234.601562 C 755.105469 241.152344 758.207031 248.460938 761.859375 256.632812 C 764.335938 262.179688 766.960938 267.875 769.734375 273.792969 C 773.605469 282.082031 777.609375 290.578125 781.195312 299.148438 C 784.171875 306.257812 786.878906 313.335938 789.074219 320.234375 C 795.246094 339.289062 798.761719 354.386719 800.902344 365.992188 C 801.554688 369.535156 802.046875 372.6875 802.417969 375.480469 C 792.273438 370.277344 782.230469 364.90625 772.347656 359.363281 C 735.425781 338.925781 701.207031 315.277344 664.992188 289.832031 C 662.546875 282.332031 655.640625 261.914062 646.109375 240.636719 C 640.933594 229.082031 635.023438 217.304688 628.695312 207.117188 C 624.257812 200.207031 617.578125 190.722656 609.847656 181.234375 C 607.023438 177.769531 604.105469 174.347656 601.074219 171.035156 C 595.660156 165.117188 590.335938 159.671875 585.402344 154.941406 C 575.742188 145.675781 568.597656 139.839844 568.597656 139.839844 C 568.25 139.382812 567.589844 139.292969 567.132812 139.648438 C 566.671875 140 566.582031 140.660156 566.9375 141.113281 C 566.9375 141.113281 569.847656 147.597656 574.734375 157.375 C 577.121094 162.15625 579.832031 167.472656 582.960938 173.222656 C 586.265625 179.285156 589.773438 185.550781 593.378906 191.691406 C 599.351562 201.859375 605.308594 211.371094 608.839844 218.4375 C 613.914062 228.1875 618.402344 239.402344 622.402344 250.296875 C 623.996094 254.648438 625.496094 258.957031 626.882812 263.113281 C 606.394531 248.867188 584.851562 234.242188 561.535156 219.449219 C 543.96875 208.308594 525.34375 197.246094 505.480469 186.128906 C 505.335938 185.675781 505.160156 185.226562 504.945312 184.789062 C 504.945312 184.789062 498.191406 171.753906 490.660156 159.363281 C 486.851562 153.097656 482.867188 147.003906 479.464844 142.683594 C 473.367188 135.214844 464.730469 125.765625 455.636719 117.964844 C 449.925781 113.070312 444.277344 108.953125 439.457031 105.667969 C 432.546875 100.953125 427.828125 98.484375 427.828125 98.484375 C 427.527344 98.199219 427.054688 98.210938 426.773438 98.511719 C 426.492188 98.808594 426.503906 99.28125 426.804688 99.566406 C 426.804688 99.566406 429.566406 104.058594 434.261719 110.910156 C 436.519531 114.203125 439.070312 117.863281 442.03125 121.8125 C 445.089844 125.886719 448.425781 130.078125 451.75 134.300781 C 456.898438 140.820312 462.003906 147.183594 465.597656 152.71875 C 468.320312 156.832031 471.363281 162.601562 474.34375 168.464844 C 474.507812 168.796875 474.675781 169.128906 474.847656 169.460938 C 471.96875 167.9375 469.0625 166.410156 466.132812 164.878906 C 450.054688 156.671875 430.164062 147.808594 410.234375 139.800781 C 367.132812 122.484375 324.621094 108.589844 324.621094 108.589844 C 323.816406 108.269531 322.898438 108.660156 322.574219 109.46875 C 322.253906 110.273438 322.648438 111.1875 323.453125 111.507812 C 323.453125 111.507812 363.621094 130.597656 404.488281 152.1875 C 423.035156 161.980469 441.703125 172.160156 456.597656 181.582031 C 471.914062 191.011719 486.410156 200.402344 500.242188 209.703125 Z M 500.242188 209.703125 " fill-opacity="1" fill-rule="evenodd"/></g></g></g></g></g><g clip-path="url(#7d12057cd1)"><g clip-path="url(#6270e46562)"><g clip-path="url(#2fb55f99e5)"><g transform="matrix(1, 0, 0, 1, 715, 984)"><g clip-path="url(#5d9c47c571)"><g clip-path="url(#7aa8e36526)"><g clip-path="url(#011e3abc03)"><g clip-path="url(#444f376843)"><path fill="#8ef012" d="M 146.417969 134.96875 L -0.636719 141.578125 L -6.699219 6.648438 L 140.355469 0.0390625 Z M 146.417969 134.96875 " fill-opacity="1" fill-rule="nonzero"/></g></g></g></g></g></g></g></g><g clip-path="url(#28f0b7ffae)"><g clip-path="url(#edb8b14741)"><g transform="matrix(1, 0, 0, 1, 638, 903)"><g clip-path="url(#06e010aace)"><g clip-path="url(#be287c99e4)"><g clip-path="url(#4f35401522)"><path fill="#8ef012" d="M -0.625 0.773438 L 146.773438 0.773438 L 146.773438 161.414062 L -0.625 161.414062 Z M -0.625 0.773438 " fill-opacity="1" fill-rule="nonzero"/></g></g></g></g></g></g><g clip-path="url(#5e50526e26)"><g clip-path="url(#17faf5693b)"><g transform="matrix(1, 0, 0, 1, 777, 869)"><g clip-path="url(#691d318f2d)"><g clip-path="url(#e10e3ba32f)"><g clip-path="url(#a2e9645a22)"><path fill="#ffffff" d="M -0.316406 0.539062 L 115.585938 0.539062 L 115.585938 102.5 L -0.316406 102.5 Z M -0.316406 0.539062 " fill-opacity="1" fill-rule="nonzero"/></g></g></g></g></g></g></svg>